 http://img28.imageshack.us/img28/1975/gasholepostersmall437x6.jpg

Country.......: USA
Genre.........: Dokumentary
Date release..: 10.04.2010 [World]
Director......: Scott Roberts, Jeremy Wagener
Writers.......: Scott Roberts, Jeremy Wagener
Duration......: 97 min.
More..........: http://www.imdb.com/title/tt1333998
Trailer.......: http://www.imdb.com/video/imdb/vi669424921
Trailer.......:

Pilot :
About the history of oil prices and the future of alternative fuels. 

Cats :
Joshua Jackson   	 ...  	Himself
Peter Gallagher 	... 	Narrator
George W. Bush 	... 	Himself (archive footage)
Sherwood Boehlert 	... 	Himself
Barbara Boxer 	... 	Herself (archive footage)
Jimmy Carter 	... 	Himself (archive footage)
Jamie Court 	... 	Himself
Anna Eshoo 	... 	Herself
Gerald Ford 	... 	Himself (archive footage)
Mark Kirk 	... 	Himself
Richard Nixon 	... 	Himself (archive footage)
Dylan Roberts 	... 	Himself
Eliana Roberts 	... 	Herself
Scott Roberts 	... 	Himself
Tom Udall 	... 	Himself 

Data Technical :
!!! SAMPLE !!!
Audio.....: English
Subtitles.: None
Format                           : AVI
Format/Info                      : Audio Video Interleave
File size                        : 797 MiB
Duration                         : 1h 37mn
Overall bit rate                 : 1 147 Kbps
Video
ID                               : 0
Format                           : MPEG-4 Visual
Format profile                   : Advanced Simple@L5
Format settings, BVOP            : Yes
Format settings, QPel            : No
Format settings, GMC             : No warppoints
Format settings, Matrix          : Default (H.263)
Codec ID                         : XVID
Codec ID/Hint                    : XviD
Duration                         : 1h 37mn
Bit rate                         : 1 009 Kbps
Width                            : 1 024 pixels
Height                           : 572 pixels
Display aspect ratio             : 16:9
Frame rate                       : 25.000 fps
Color space                      : YUV
Chroma subsampling               : 4:2:0
Bit depth                        : 8 bits
Scan type                        : Progressive
Bits/(Pixel*Frame)               : 0.069
Stream size                      : 701 MiB (88%)
Writing library                  : XviD 1.2.1 (UTC 2008-12-04)
Audio
ID                               : 1
Format                           : AC-3
Format/Info                      : Audio Coding 3
Mode extension                   : CM (complete main)
Codec ID                         : 2000
Duration                         : 1h 37mn
Bit rate mode                    : Constant
Bit rate                         : 128 Kbps
Channel(s)                       : 2 channels
Channel positions                : Front: L R
Sampling rate                    : 48.0 KHz
Bit depth                        : 16 bits
Stream size                      : 89.0 MiB (11%)
Alignment                        : Aligned on interleaves
Interleave, duration             : 32 ms (0.80 video frame)

Screen : 
http://img836.imageshack.us/img836/8122/gashole2010s1.jpg 
http://img585.imageshack.us/img585/6743/gashole2010s2.jpg 
http://img543.imageshack.us/img543/3307/gashole2010s3.jpg 
http://img153.imageshack.us/img153/779/gashole2010s4.jpg 
http://img822.imageshack.us/img822/1097/gashole2010s5.jpg